<svg xmlns="http://www.w3.org/2000/svg" viewBox="0 0 2000 700" width="2000" height="700">
<rect width="2000" height="700" fill="#f4f1ea"/>
<rect x="90" y="60" width="322.3" height="544" fill="#d1495b" opacity="0.06"/>
<rect x="90.0" y="75.6" width="23.6" height="528.4" fill="#8d99ae" opacity="0.88"/><rect x="143.7" y="592.3" width="23.6" height="11.7" fill="#8d99ae" opacity="0.88"/><rect x="197.4" y="592.3" width="23.6" height="11.7" fill="#8d99ae" opacity="0.88"/><rect x="251.1" y="577.8" width="23.6" height="26.2" fill="#8d99ae" opacity="0.88"/><rect x="358.6" y="565.1" width="23.6" height="38.9" fill="#8d99ae" opacity="0.88"/><rect x="412.3" y="568.8" width="23.6" height="35.2" fill="#8d99ae" opacity="0.88"/><rect x="466.0" y="592.3" width="23.6" height="11.7" fill="#8d99ae" opacity="0.88"/><rect x="519.7" y="550.3" width="23.6" height="53.7" fill="#8d99ae" opacity="0.88"/><rect x="573.4" y="558.6" width="23.6" height="45.4" fill="#8d99ae" opacity="0.88"/><rect x="627.1" y="568.8" width="23.6" height="35.2" fill="#8d99ae" opacity="0.88"/><rect x="680.9" y="547.8" width="23.6" height="56.2" fill="#8d99ae" opacity="0.88"/><rect x="734.6" y="560.1" width="23.6" height="43.9" fill="#8d99ae" opacity="0.88"/><rect x="788.3" y="554.3" width="23.6" height="49.7" fill="#8d99ae" opacity="0.88"/><rect x="842.0" y="549.0" width="23.6" height="55.0" fill="#8d99ae" opacity="0.88"/><rect x="895.7" y="551.6" width="23.6" height="52.4" fill="#8d99ae" opacity="0.88"/><rect x="949.4" y="554.3" width="23.6" height="49.7" fill="#8d99ae" opacity="0.88"/><rect x="1003.1" y="549.0" width="23.6" height="55.0" fill="#8d99ae" opacity="0.88"/><rect x="1056.9" y="560.1" width="23.6" height="43.9" fill="#8d99ae" opacity="0.88"/><rect x="1110.6" y="552.9" width="23.6" height="51.1" fill="#8d99ae" opacity="0.88"/><rect x="1164.3" y="560.1" width="23.6" height="43.9" fill="#8d99ae" opacity="0.88"/><rect x="1218.0" y="577.8" width="23.6" height="26.2" fill="#8d99ae" opacity="0.88"/><rect x="1271.7" y="570.8" width="23.6" height="33.2" fill="#8d99ae" opacity="0.88"/><rect x="1325.4" y="558.6" width="23.6" height="45.4" fill="#8d99ae" opacity="0.88"/><rect x="1379.1" y="568.8" width="23.6" height="35.2" fill="#8d99ae" opacity="0.88"/><rect x="1432.9" y="560.1" width="23.6" height="43.9" fill="#8d99ae" opacity="0.88"/><rect x="1486.6" y="570.8" width="23.6" height="33.2" fill="#8d99ae" opacity="0.88"/><rect x="1540.3" y="565.1" width="23.6" height="38.9" fill="#8d99ae" opacity="0.88"/><rect x="1594.0" y="552.9" width="23.6" height="51.1" fill="#8d99ae" opacity="0.88"/><rect x="1647.7" y="573.0" width="23.6" height="31.0" fill="#8d99ae" opacity="0.88"/><rect x="1701.4" y="587.4" width="23.6" height="16.6" fill="#8d99ae" opacity="0.88"/><rect x="1808.9" y="587.4" width="23.6" height="16.6" fill="#8d99ae" opacity="0.88"/>
<rect x="115.8" y="495.9" width="23.6" height="108.1" fill="#264653" opacity="0.88"/><rect x="384.4" y="592.3" width="23.6" height="11.7" fill="#264653" opacity="0.88"/><rect x="438.1" y="587.4" width="23.6" height="16.6" fill="#264653" opacity="0.88"/><rect x="545.5" y="550.3" width="23.6" height="53.7" fill="#264653" opacity="0.88"/><rect x="599.2" y="561.7" width="23.6" height="42.3" fill="#264653" opacity="0.88"/><rect x="652.9" y="570.8" width="23.6" height="33.2" fill="#264653" opacity="0.88"/><rect x="706.6" y="560.1" width="23.6" height="43.9" fill="#264653" opacity="0.88"/><rect x="760.4" y="568.8" width="23.6" height="35.2" fill="#264653" opacity="0.88"/><rect x="814.1" y="547.8" width="23.6" height="56.2" fill="#264653" opacity="0.88"/><rect x="867.8" y="557.1" width="23.6" height="46.9" fill="#264653" opacity="0.88"/><rect x="921.5" y="550.3" width="23.6" height="53.7" fill="#264653" opacity="0.88"/><rect x="975.2" y="536.7" width="23.6" height="67.3" fill="#264653" opacity="0.88"/><rect x="1028.9" y="516.3" width="23.6" height="87.7" fill="#264653" opacity="0.88"/><rect x="1082.6" y="509.5" width="23.6" height="94.5" fill="#264653" opacity="0.88"/><rect x="1136.4" y="496.6" width="23.6" height="107.4" fill="#264653" opacity="0.88"/><rect x="1190.1" y="482.8" width="23.6" height="121.2" fill="#264653" opacity="0.88"/><rect x="1243.8" y="502.5" width="23.6" height="101.5" fill="#264653" opacity="0.88"/><rect x="1297.5" y="496.6" width="23.6" height="107.4" fill="#264653" opacity="0.88"/><rect x="1351.2" y="484.5" width="23.6" height="119.5" fill="#264653" opacity="0.88"/><rect x="1404.9" y="484.5" width="23.6" height="119.5" fill="#264653" opacity="0.88"/><rect x="1458.6" y="470.9" width="23.6" height="133.1" fill="#264653" opacity="0.88"/><rect x="1512.4" y="445.4" width="23.6" height="158.6" fill="#264653" opacity="0.88"/><rect x="1566.1" y="479.4" width="23.6" height="124.6" fill="#264653" opacity="0.88"/><rect x="1619.8" y="488.6" width="23.6" height="115.4" fill="#264653" opacity="0.88"/><rect x="1673.5" y="528.9" width="23.6" height="75.1" fill="#264653" opacity="0.88"/><rect x="1727.2" y="561.7" width="23.6" height="42.3" fill="#264653" opacity="0.88"/><rect x="1780.9" y="587.4" width="23.6" height="16.6" fill="#264653" opacity="0.88"/><rect x="1834.6" y="587.4" width="23.6" height="16.6" fill="#264653" opacity="0.88"/><rect x="1888.4" y="592.3" width="23.6" height="11.7" fill="#264653" opacity="0.88"/>
<line x1="412.3" y1="48" x2="412.3" y2="604" stroke="#d1495b" stroke-width="3" stroke-dasharray="8 5"/>
<text x="424.3" y="40" font-family="Helvetica,Arial" font-size="23" font-weight="bold" fill="#d1495b">cutoff at 6px &#8594; drop the TextLine</text>
<line x1="90" y1="604" x2="1970" y2="604" stroke="#264653" stroke-width="1.6"/>
<line x1="116.9" y1="604" x2="116.9" y2="612" stroke="#264653" stroke-width="1.5"/><text x="116.9" y="636" text-anchor="middle" font-family="Helvetica,Arial" font-size="21" fill="#264653">0</text><line x1="116.9" y1="604" x2="116.9" y2="612" stroke="#264653" stroke-width="1.5"/><text x="116.9" y="636" text-anchor="middle" font-family="Helvetica,Arial" font-size="21" fill="#264653">1</text><line x1="546.6" y1="604" x2="546.6" y2="612" stroke="#264653" stroke-width="1.5"/><text x="546.6" y="636" text-anchor="middle" font-family="Helvetica,Arial" font-size="21" fill="#264653">10</text><line x1="1083.7" y1="604" x2="1083.7" y2="612" stroke="#264653" stroke-width="1.5"/><text x="1083.7" y="636" text-anchor="middle" font-family="Helvetica,Arial" font-size="21" fill="#264653">100</text><line x1="1620.9" y1="604" x2="1620.9" y2="612" stroke="#264653" stroke-width="1.5"/><text x="1620.9" y="636" text-anchor="middle" font-family="Helvetica,Arial" font-size="21" fill="#264653">1000</text>
<text x="1970" y="678" text-anchor="end" font-family="Helvetica,Arial" font-size="22" fill="#264653">handwriting pixels under the cell polygon (log scale) &#183; bar height &#8730;count</text>
<rect x="90" y="66" width="18" height="18" fill="#8d99ae"/>
<text x="116" y="81" font-family="Helvetica,Arial" font-size="22" fill="#264653">blank cells (2,389) &#183; median 0px</text>
<rect x="90" y="96" width="18" height="18" fill="#264653"/>
<text x="116" y="111" font-family="Helvetica,Arial" font-size="22" fill="#264653">cells with text (1,506) &#183; median 270px</text>
</svg>